<svg width="24" height="24" viewBox="0 0 50 50" fill="none" xmlns="http://www.w3.org/2000/svg">
<g clip-path="url(#clip0_326_175)">
<path d="M46.9259 29.4814C46.3366 28.6872 45.61 27.9705 44.7661 27.3512C44.6191 27.2433 44.4358 27.1424 44.2418 27.0355C43.8285 26.808 43.3144 26.5247 43.2824 26.2124C43.23 25.7025 43.209 25.219 43.1887 24.7514C43.1289 23.3713 43.0722 22.0678 42.2053 20.5927C40.2607 17.2856 37.4446 15.4987 33.0739 14.7988C32.5477 14.7146 31.985 14.6718 31.4015 14.6718C28.6654 14.6718 25.842 15.6007 24.2087 17.0381C24.1174 17.1185 24.0349 17.1934 23.9591 17.2623C23.6963 17.5012 23.5226 17.6591 23.4008 17.6591C23.2856 17.6591 23.0826 17.5525 22.7806 17.3332C21.9511 16.7308 21.0458 16.2208 20.0899 15.8171C18.7427 15.2482 17.3828 14.9598 16.0478 14.9598C15.3062 14.9598 14.5758 15.0513 13.8767 15.2316C13.2982 15.3808 12.7822 15.6432 12.2833 15.8968C11.8366 16.1238 11.4147 16.3382 10.9651 16.4679C10.9019 16.4861 10.8369 16.495 10.7666 16.495C10.3736 16.495 9.91835 16.2166 9.47798 15.9473C9.21816 15.7886 8.97292 15.6386 8.72983 15.5375C7.63687 15.0833 6.37576 14.8433 5.08259 14.8433C4.36741 14.8433 3.66993 14.9172 3.00933 15.0632C2.96153 15.0737 2.87445 15.0887 2.76036 15.1085C2.53725 15.1473 2.22165 15.2025 1.88836 15.2747C1.55921 16.0615 1.27028 16.8688 1.0235 17.6941L1.20318 17.6587C2.42099 17.4183 3.71749 17.3678 4.59075 17.3678C4.7771 17.3678 4.93771 17.37 5.0665 17.3725C5.93229 17.3893 6.76533 17.5465 7.54224 17.8398C8.46971 18.1899 9.34594 18.745 10.1467 19.4897C10.3998 19.7251 10.645 19.8396 10.8964 19.8396C11.3288 19.8396 11.6101 19.5145 11.8823 19.2C11.989 19.0769 12.0991 18.9494 12.2145 18.8469C13.3877 17.8028 14.918 17.5836 15.9951 17.5836C16.2366 17.5836 16.485 17.5946 16.7335 17.6159C18.4051 17.7597 20.0777 18.4716 21.5704 19.6747L21.6138 19.7097C22.1972 20.18 22.8585 20.7129 23.2556 21.3106C23.3237 21.413 23.5306 21.7247 23.8746 21.7247C24.3648 21.7247 24.5767 21.1282 24.7316 20.6926C24.7627 20.6049 24.7922 20.5221 24.8125 20.4786C25.7871 18.3939 28.2409 17.1494 31.3764 17.1494C32.5146 17.1494 33.6446 17.3193 34.6441 17.6407C37.5799 18.5844 40.7527 20.8277 40.8529 24.2939C40.8764 25.1146 40.7606 26.0073 40.4987 27.0236C40.2905 27.8326 41.2575 28.1644 41.8353 28.3627C42.0116 28.4232 42.1939 28.4857 42.2853 28.5379C43.8658 29.4414 45.1743 30.7803 45.7858 32.1193C45.9282 32.4316 46.5007 34.0738 46.6977 36.4027L46.7408 36.9115C47.4598 35.6633 48.0711 34.3471 48.564 32.9752C48.1741 31.6182 47.3891 30.1054 46.9259 29.4814Z" fill="#87BBF1"/>
</g>
<defs>
<clipPath id="clip0_326_175">
<rect width="50" height="50" fill="white"/>
</clipPath>
</defs>
</svg>
